<svg xmlns="http://www.w3.org/2000/svg" xmlns:xlink="http://www.w3.org/1999/xlink" viewBox="0 0 1920 957.92"><defs><style>.cls-1{fill:url(#linear-gradient);}</style><linearGradient id="linear-gradient" y1="478.96" x2="1920" y2="478.96" gradientUnits="userSpaceOnUse"><stop offset="0" stop-color="#f41dff"/><stop offset="1" stop-color="#61ffff"/></linearGradient></defs><title>bg_portfolio</title><g id="Layer_2" data-name="Layer 2"><g id="Layer_1-2" data-name="Layer 1"><path class="cls-1" d="M1920,492c-174.53-56.23-393.91-107.12-457.37-19.76C1400,558.54,1528.94,725,1474,774.15,1389.89,849.31,1042.52,499.86,869.69,605,789,654,800.25,769.36,703.7,792.25c-51,12.08-78.72-12.88-195.37-10.92-30.44.52-64.93,3.44-107.35,10.71C224.58,822.3,88.79,897.44,0,957.92V0H1920ZM1602.39,829.45A63.53,63.53,0,1,0,1665.92,893,63.54,63.54,0,0,0,1602.39,829.45Z"/></g></g></svg>